Coordinates
version=1
nRows=19
nColumns=36
inDegrees=yes

Units are S.I. units (second, meters, Newtons, ...)
If the header above contains a line with 'inDegrees', this indicates whether rotational values are in degrees (yes) or radians (no).

endheader
time	pelvis_tilt	pelvis_list	pelvis_rotation	pelvis_tx	pelvis_ty	pelvis_tz	hip_flexion_r	hip_adduction_r	hip_rotation_r	knee_angle_r	knee_angle_r_beta	ankle_angle_r	subtalar_angle_r	mtp_angle_r	hip_flexion_l	hip_adduction_l	hip_rotation_l	knee_angle_l	knee_angle_l_beta	ankle_angle_l	subtalar_angle_l	mtp_angle_l	lumbar_extension	lumbar_bending	lumbar_rotation	arm_flex_r	arm_add_r	arm_rot_r	elbow_flex_r	pro_sup_r	arm_flex_l	arm_add_l	arm_rot_l	elbow_flex_l	pro_sup_l
      0.00000000	     -1.33283425	     -0.12854278	     -1.62683659	      0.48446856	      0.90369797	     -0.14521743	     -2.35228858	     -7.57668474	      1.83814163	     11.15230895	      0.19464451	      6.47371357	    -14.57603765	     -6.33180454	     -0.94806029	     -5.05435699	     -4.13122387	     10.36595550	      0.18092005	     12.24279262	    -14.08031451	     -6.33180454	     -0.25573690	     -0.10896039	     -2.19657418	     40.89317134	     12.97628071	     66.51939405	    116.27687378	    107.37250920	     29.36485748	     13.49369444	     67.24742258	    118.88614423	    105.64613127
      0.01666670	     -1.27797432	     -0.28716688	     -2.32273367	      0.48446628	      0.90017852	     -0.14497450	     -2.21589837	     -7.56150337	      1.66546236	     11.10229693	      0.19377164	     10.52340147	    -10.62592967	     -6.41461565	     -0.44472183	     -4.97041389	     -3.91209479	     10.67506143	      0.18631497	     12.00034242	    -14.04380965	     -6.41461565	      0.34370755	      0.81261132	     -1.70336988	     43.43712027	     13.34237649	     68.29074348	    117.12015969	    106.72948029	     30.18759649	     13.32158852	     69.39853749	    122.36698514	    104.62795749
      0.03333330	     -1.69191613	      0.28078268	     -2.75620192	      0.48484368	      0.90068588	     -0.14385329	     -1.57315765	     -8.48053151	      0.92501321	     11.04644298	      0.19279680	     11.16249818	     -9.78991242	     -6.91201654	     -0.06854949	     -4.26023698	     -3.83772783	     10.69101727	      0.18659345	     12.11351421	    -13.85570545	     -6.91201654	      0.88783602	      0.03550704	     -0.80285606	     42.67177128	     12.95491693	     69.09271147	    117.86046688	    105.28640183	     30.06071187	     12.96816977	     70.55849674	    124.30246295	    100.74133136
      0.05000000	     -1.36202888	      0.72873846	     -2.85822761	      0.48450061	      0.90114873	     -0.14331555	     -1.66050656	     -9.14706324	      0.43865310	     11.21963156	      0.19581951	     11.84844111	     -8.82313653	     -7.23839745	     -0.83430741	     -3.68122736	     -3.24637172	     10.04216782	      0.17526889	     11.67313939	    -14.38886917	     -7.23839745	      0.74892176	     -0.70459377	     -0.26158003	     42.17134687	     12.75553955	     69.92044515	    117.61444705	    103.74294914	     30.21562609	     13.16484804	     70.99223529	    124.20389894	     97.54583203
      0.06666670	     -1.26143325	      0.86976871	     -3.03281781	      0.48494586	      0.90145922	     -0.14302140	     -1.45874321	     -9.33724217	      0.09303689	     11.59225699	      0.20232305	     12.39325464	     -8.32576150	     -7.30891647	     -1.35909906	     -3.50075329	     -2.90379593	      9.33476334	      0.16292236	     11.55384007	    -14.38552132	     -7.30891647	      0.84107331	     -0.87050737	      0.11948565	     41.67858251	     12.55515210	     70.53046476	    117.14437231	    102.17333733	     30.09921886	     13.32018217	     70.87398672	    123.55715719	     96.10969088
      0.08333330	     -1.11883737	      1.05510936	     -2.79609356	      0.48457638	      0.90206266	     -0.14292850	     -1.47262301	     -9.48772292	     -0.42332616	     11.84417915	      0.20671992	     12.82294779	     -7.93729100	     -7.36898286	     -1.59450900	     -3.25557207	     -2.21604353	      8.96121718	      0.15640274	     11.15638560	    -14.94451921	     -7.36898286	      0.76694688	     -1.10060583	      0.32450537	     41.13392723	     12.13642712	     70.21964348	    116.70083911	    101.28489807	     30.10650740	     13.57561539	     70.79551279	    122.94568650	     94.64972723
      0.10000000	     -0.92925335	      1.18865778	     -2.86296768	      0.48492582	      0.90236487	     -0.14276224	     -1.52233379	     -9.64911673	     -0.67322559	     12.03769088	      0.21009734	     13.10756662	     -7.71181921	     -7.37685709	     -1.91546127	     -3.10165477	     -2.16034406	      8.68184366	      0.15152676	     10.97141360	    -15.02189847	     -7.37685709	      0.72194173	     -1.20989132	      0.53287935	     40.98359335	     11.93022753	     69.79856297	    116.23990604	     99.33819447	     30.12689863	     13.62287866	     70.78727034	    122.74927820	     93.17686403
      0.11666670	     -0.81029209	      1.32722397	     -2.77302988	      0.48441918	      0.90263687	     -0.14260504	     -1.57637996	     -9.79123515	     -1.05784103	     12.17069945	      0.21241878	     13.37343513	     -7.32332080	     -7.41835208	     -2.04899793	     -2.92253968	     -1.78085181	      8.54057251	      0.14906111	     10.38197483	    -15.67757069	     -7.41835208	      0.69865441	     -1.42790856	      0.67085315	     40.93956937	     11.90503037	     69.47486797	    115.88342041	     97.99382847	     30.22906393	     13.69910217	     70.97178665	    122.55302462	     90.21890756
      0.13333330	     -0.67876954	      1.44756718	     -2.71640964	      0.48477385	      0.90295503	     -0.14253921	     -1.71293415	     -9.91281227	     -1.21146823	     12.18534414	      0.21267438	     13.43776002	     -7.33352870	     -7.44988440	     -2.17267875	     -2.79915890	     -1.79265270	      8.53322968	      0.14893295	     10.18648776	    -15.59050155	     -7.44988440	      0.61374526	     -1.57627906	      0.67438100	     40.94233392	     12.08108348	     69.11469825	    115.47368528	     99.60666847	     29.99097385	     13.84475147	     70.97450403	    122.44735721	     90.52398818
      0.15000000	     -0.64998692	      1.55065951	     -2.67488980	      0.48021578	      0.90246535	     -0.14510894	     -1.51849630	    -10.08544359	     -1.35129650	     12.38391429	      0.21614008	     13.52292714	     -7.44782733	     -7.45030496	     -2.04610430	     -2.65113240	     -1.59441548	      8.66116114	      0.15116578	     10.09076534	    -15.62376408	     -7.45030496	      0.45019009	     -1.62256052	      0.57894811	     41.32296829	     12.07020856	     68.83717373	    115.44604796	     99.58705386	     30.42635974	     13.84180001	     70.78729973	    122.32297796	     90.47019917
      0.16666670	     -0.57169918	      1.63799791	     -2.61849296	      0.48070655	      0.90063489	     -0.14520763	     -1.45220731	    -10.24311844	     -1.43142040	     12.53199715	      0.21872461	     13.64175856	     -7.42633771	     -7.45318611	     -1.96702341	     -2.52058287	     -1.35663530	      8.85941289	      0.15462592	     10.02472951	    -15.76426028	     -7.45318611	      0.20758693	     -1.67221220	      0.52300493	     41.62181760	     12.10829041	     68.69639601	    115.49060423	     98.62224007	     30.76162450	     13.93595719	     70.75185714	    122.30803468	     89.72289384
      0.18333330	     -0.56114180	      1.62672266	     -2.57379377	      0.48408781	      0.90345656	     -0.14195970	     -1.49969027	    -10.17293101	     -1.43246555	     12.53230642	      0.21873001	     13.63548003	     -7.41682211	     -7.45324994	     -2.04308017	     -2.58179484	     -1.21184061	      8.84531376	      0.15437985	      9.97362122	    -15.73382860	     -7.45324994	      0.25920146	     -1.77179567	      0.58573956	     41.60646295	     12.18083075	     68.71061760	    115.48063755	     98.62766604	     30.73616553	     13.90661091	     70.77477148	    122.32234064	     89.70841293
      0.20000000	     -0.55198255	      1.61971821	     -2.57914657	      0.48051135	      0.90279639	     -0.14472187	     -1.46598123	    -10.19027182	     -1.43272083	     12.52304536	      0.21856837	     13.63632791	     -7.41783326	     -7.45325327	     -2.05123464	     -2.58494302	     -1.20364649	      8.83648306	      0.15422572	      9.97485763	    -15.73199803	     -7.45325327	      0.25807555	     -1.77342129	      0.58481811	     41.60387703	     12.18681974	     68.71066521	    115.48168533	     98.62776566	     30.73870850	     13.90633653	     70.77443290	    122.32257070	     89.70720299
      0.21666670	     -0.44280664	      1.63841251	     -2.51202064	      0.48000321	      0.90070018	     -0.14497034	     -1.51135621	    -10.25795777	     -1.56737365	     12.60347227	      0.21997209	     13.63537928	     -7.46357307	     -7.45703754	     -2.41166305	     -2.47302076	     -0.50470987	      8.28087465	      0.14452853	      9.74873282	    -16.27554177	     -7.45703754	      0.00995846	     -1.71034736	      0.23919756	     41.74711422	     12.58924015	     68.82626562	    115.73343286	     97.89956803	     31.03280117	     13.92815833	     70.62477833	    122.52338766	     88.10305574
      0.23333330	     -0.52034532	      1.60715214	     -2.54081469	      0.47649856	      0.90036972	     -0.14280996	     -1.19818273	    -10.18759957	     -1.55646816	     12.78982339	      0.22322453	     13.78931447	     -7.56818854	     -7.45727924	     -2.30395225	     -2.51606923	     -0.31725409	      8.16638665	      0.14253034	      9.84537070	    -16.40934347	     -7.45727924	     -0.11503238	     -1.71924824	      0.50210869	     41.96048237	     12.55583551	     68.78959061	    115.81074524	     97.35087867	     31.27665893	     13.96297293	     70.59358203	    122.65795671	     87.41773676
      0.25000000	     -0.52160180	      1.60048191	     -2.53441796	      0.48006378	      0.90115509	     -0.14495247	     -1.19033136	    -10.20610972	     -1.55257178	     12.79081605	      0.22324185	     13.78960011	     -7.56810956	     -7.45728175	     -2.31802434	     -2.52783356	     -0.31506670	      8.16612760	      0.14252581	      9.84557804	    -16.40806645	     -7.45728175	     -0.12198711	     -1.72483514	      0.50742813	     41.96125168	     12.55994428	     68.79071557	    115.81134329	     97.35121326	     31.28055098	     13.96049277	     70.58963624	    122.65825948	     87.41699597
      0.26666670	     -0.52924766	      1.63114472	     -2.57963699	      0.47655148	      0.90082435	     -0.14272474	     -0.97404329	    -10.20580401	     -1.52820019	     13.01989033	      0.22723995	     13.99212103	     -7.60363883	     -7.45786134	     -2.47631736	     -2.50866350	     -0.24617194	      7.72026402	      0.13474403	      9.78914972	    -16.28755968	     -7.45786134	     -0.34104294	     -1.79427092	      0.97590194	     42.14488631	     12.65154763	     68.97913599	    116.15734791	     97.42961657	     31.32486891	     14.05827160	     70.24243287	    122.86141321	     87.27796198
      0.28333330	     -0.52107685	      1.64720043	     -2.60454914	      0.47608216	      0.90106112	     -0.14261426	     -0.98915313	    -10.15888525	     -1.33008582	     12.85259950	      0.22432018	     13.90334842	     -7.78891368	     -7.47506495	     -2.57609260	     -2.53807922	     -0.37317634	      7.43065796	      0.12968945	      9.54852449	    -16.05872234	     -7.47506495	     -0.49845266	     -1.88226876	      1.30522401	     42.37885311	     12.60591614	     69.03109969	    116.37524961	     97.58493195	     31.43719676	     14.03744677	     70.14623910	    122.86732909	     85.34999172
      0.30000000	     -0.85647591	      1.68555027	     -2.56712295	      0.47675380	      0.90103706	     -0.14284224	     -0.74345248	    -10.15970636	     -1.39884199	     12.60694290	      0.22003266	     13.83566418	     -7.64844940	     -7.47579281	     -2.37057151	     -2.53406329	     -0.58338065	      7.00228520	      0.12221293	      9.25336525	    -15.77922542	     -7.47579281	     -0.12963416	     -1.92201346	      1.47392387	     42.27176318	     12.62899039	     69.17628029	    116.49713103	     96.91821867	     31.21634871	     14.04982817	     70.05683304	    122.99173306	     84.73402239
